<?xml version="1.0" encoding="utf-8"?><svg xmlns="http://www.w3.org/2000/svg" xmlns:xlink="http://www.w3.org/1999/xlink"><symbol id="box-arrow-left" viewBox="0 0 16 16"><path fill-rule="evenodd" d="M6 12.5a.5.5 0 0 0 .5.5h8a.5.5 0 0 0 .5-.5v-9a.5.5 0 0 0-.5-.5h-8a.5.5 0 0 0-.5.5v2a.5.5 0 0 1-1 0v-2A1.5 1.5 0 0 1 6.5 2h8A1.5 1.5 0 0 1 16 3.5v9a1.5 1.5 0 0 1-1.5 1.5h-8A1.5 1.5 0 0 1 5 12.5v-2a.5.5 0 0 1 1 0v2z"/><path fill-rule="evenodd" d="M.146 8.354a.5.5 0 0 1 0-.708l3-3a.5.5 0 1 1 .708.708L1.707 7.5H10.5a.5.5 0 0 1 0 1H1.707l2.147 2.146a.5.5 0 0 1-.708.708l-3-3z"/></symbol><symbol id="box-arrow-right" viewBox="0 0 16 16"><path fill-rule="evenodd" d="M10 12.5a.5.5 0 0 1-.5.5h-8a.5.5 0 0 1-.5-.5v-9a.5.5 0 0 1 .5-.5h8a.5.5 0 0 1 .5.5v2a.5.5 0 0 0 1 0v-2A1.5 1.5 0 0 0 9.5 2h-8A1.5 1.5 0 0 0 0 3.5v9A1.5 1.5 0 0 0 1.5 14h8a1.5 1.5 0 0 0 1.5-1.5v-2a.5.5 0 0 0-1 0v2z"/><path fill-rule="evenodd" d="M15.854 8.354a.5.5 0 0 0 0-.708l-3-3a.5.5 0 0 0-.708.708L14.293 7.5H5.5a.5.5 0 0 0 0 1h8.793l-2.147 2.146a.5.5 0 0 0 .708.708l3-3z"/></symbol><symbol id="eraser" viewBox="0 0 16 16"><path d="M8.086 2.207a2 2 0 0 1 2.828 0l3.879 3.879a2 2 0 0 1 0 2.828l-5.5 5.5A2 2 0 0 1 7.879 15H5.12a2 2 0 0 1-1.414-.586l-2.5-2.5a2 2 0 0 1 0-2.828l6.879-6.879zm2.121.707a1 1 0 0 0-1.414 0L4.16 7.547l5.293 5.293 4.633-4.633a1 1 0 0 0 0-1.414l-3.879-3.879zM8.746 13.547 3.453 8.254 1.914 9.793a1 1 0 0 0 0 1.414l2.5 2.5a1 1 0 0 0 .707.293H7.88a1 1 0 0 0 .707-.293l.16-.16z"/></symbol><symbol id="eyedropper" viewBox="0 0 16 16"><path d="M13.354.646a1.207 1.207 0 0 0-1.708 0L8.5 3.793l-.646-.647a.5.5 0 1 0-.708.708L8.293 5l-7.147 7.146A.5.5 0 0 0 1 12.5v1.793l-.854.853a.5.5 0 1 0 .708.707L1.707 15H3.5a.5.5 0 0 0 .354-.146L11 7.707l1.146 1.147a.5.5 0 0 0 .708-.708l-.647-.646 3.147-3.146a1.207 1.207 0 0 0 0-1.708l-2-2zM2 12.707l7-7L10.293 7l-7 7H2v-1.293z"/></symbol><symbol id="front" viewBox="0 0 16 16"><path d="M0 2a2 2 0 0 1 2-2h8a2 2 0 0 1 2 2v2h2a2 2 0 0 1 2 2v8a2 2 0 0 1-2 2H6a2 2 0 0 1-2-2v-2H2a2 2 0 0 1-2-2V2zm5 10v2a1 1 0 0 0 1 1h8a1 1 0 0 0 1-1V6a1 1 0 0 0-1-1h-2v5a2 2 0 0 1-2 2H5z"/></symbol><symbol id="pause" viewBox="0 0 16 16"><path d="M6 3.5a.5.5 0 0 1 .5.5v8a.5.5 0 0 1-1 0V4a.5.5 0 0 1 .5-.5zm4 0a.5.5 0 0 1 .5.5v8a.5.5 0 0 1-1 0V4a.5.5 0 0 1 .5-.5z"/></symbol><symbol id="pencil" viewBox="0 0 16 16"><path d="M12.146.146a.5.5 0 0 1 .708 0l3 3a.5.5 0 0 1 0 .708l-10 10a.5.5 0 0 1-.168.11l-5 2a.5.5 0 0 1-.65-.65l2-5a.5.5 0 0 1 .11-.168l10-10zM11.207 2.5 13.5 4.793 14.793 3.5 12.5 1.207 11.207 2.5zm1.586 3L10.5 3.207 4 9.707V10h.5a.5.5 0 0 1 .5.5v.5h.5a.5.5 0 0 1 .5.5v.5h.293l6.5-6.5zm-9.761 5.175-.106.106-1.528 3.821 3.821-1.528.106-.106A.5.5 0 0 1 5 12.5V12h-.5a.5.5 0 0 1-.5-.5V11h-.5a.5.5 0 0 1-.468-.325z"/></symbol><symbol id="play" viewBox="0 0 16 16"><path d="M10.804 8 5 4.633v6.734L10.804 8zm.792-.696a.802.802 0 0 1 0 1.392l-6.363 3.692C4.713 12.69 4 12.345 4 11.692V4.308c0-.653.713-.998 1.233-.696l6.363 3.692z"/></symbol><symbol id="plus-square" viewBox="0 0 16 16"><path d="M14 1a1 1 0 0 1 1 1v12a1 1 0 0 1-1 1H2a1 1 0 0 1-1-1V2a1 1 0 0 1 1-1h12zM2 0a2 2 0 0 0-2 2v12a2 2 0 0 0 2 2h12a2 2 0 0 0 2-2V2a2 2 0 0 0-2-2H2z"/><path d="M8 4a.5.5 0 0 1 .5.5v3h3a.5.5 0 0 1 0 1h-3v3a.5.5 0 0 1-1 0v-3h-3a.5.5 0 0 1 0-1h3v-3A.5.5 0 0 1 8 4z"/></symbol><symbol id="skip-backward" viewBox="0 0 16 16"><path d="M.5 3.5A.5.5 0 0 1 1 4v3.248l6.267-3.636c.52-.302 1.233.043 1.233.696v2.94l6.267-3.636c.52-.302 1.233.043 1.233.696v7.384c0 .653-.713.998-1.233.696L8.5 8.752v2.94c0 .653-.713.998-1.233.696L1 8.752V12a.5.5 0 0 1-1 0V4a.5.5 0 0 1 .5-.5zm7 1.133L1.696 8 7.5 11.367V4.633zm7.5 0L9.196 8 15 11.367V4.633z"/></symbol><symbol id="skip-end" viewBox="0 0 16 16"><path d="M12.5 4a.5.5 0 0 0-1 0v3.248L5.233 3.612C4.713 3.31 4 3.655 4 4.308v7.384c0 .653.713.998 1.233.696L11.5 8.752V12a.5.5 0 0 0 1 0V4zM5 4.633 10.804 8 5 11.367V4.633z"/></symbol><symbol id="skip-forward" viewBox="0 0 16 16"><path d="M15.5 3.5a.5.5 0 0 1 .5.5v8a.5.5 0 0 1-1 0V8.752l-6.267 3.636c-.52.302-1.233-.043-1.233-.696v-2.94l-6.267 3.636C.713 12.69 0 12.345 0 11.692V4.308c0-.653.713-.998 1.233-.696L7.5 7.248v-2.94c0-.653.713-.998 1.233-.696L15 7.248V4a.5.5 0 0 1 .5-.5zM1 4.633v6.734L6.804 8 1 4.633zm7.5 0v6.734L14.304 8 8.5 4.633z"/></symbol><symbol id="skip-start" viewBox="0 0 16 16"><path d="M4 4a.5.5 0 0 1 1 0v3.248l6.267-3.636c.52-.302 1.233.043 1.233.696v7.384c0 .653-.713.998-1.233.696L5 8.752V12a.5.5 0 0 1-1 0V4zm7.5.633L5.696 8l5.804 3.367V4.633z"/></symbol><symbol id="trash" viewBox="0 0 16 16"><path d="M5.5 5.5A.5.5 0 0 1 6 6v6a.5.5 0 0 1-1 0V6a.5.5 0 0 1 .5-.5zm2.5 0a.5.5 0 0 1 .5.5v6a.5.5 0 0 1-1 0V6a.5.5 0 0 1 .5-.5zm3 .5a.5.5 0 0 0-1 0v6a.5.5 0 0 0 1 0V6z"/><path fill-rule="evenodd" d="M14.5 3a1 1 0 0 1-1 1H13v9a2 2 0 0 1-2 2H5a2 2 0 0 1-2-2V4h-.5a1 1 0 0 1-1-1V2a1 1 0 0 1 1-1H6a1 1 0 0 1 1-1h2a1 1 0 0 1 1 1h3.5a1 1 0 0 1 1 1v1zM4.118 4 4 4.059V13a1 1 0 0 0 1 1h6a1 1 0 0 0 1-1V4.059L11.882 4H4.118zM2.5 3V2h11v1h-11z"/></symbol></svg>